name ./resultDataOpenSim/trcMotMarkerGrf/sub10/grf-12-05.mot
datacolumns 19
datarows 10
range 1.01200000 1.04800000
endheader

                time	     ground_force_vx	     ground_force_vy	     ground_force_vz	     ground_force_px	     ground_force_py	     ground_force_pz	   l_ground_force_vx	   l_ground_force_vy	   l_ground_force_vz	   l_ground_force_px	   l_ground_force_py	   l_ground_force_pz	     ground_torque_x	     ground_torque_y	     ground_torque_z	   l_ground_torque_x	   l_ground_torque_y	   l_ground_torque_z	
          1.01200000	          0.00000000	          0.00000000	          0.00000000	          0.00000000	          0.00000000	          0.00000000	        -16.47545323	        587.54696151	         21.10991413	         -0.04066212	         -0.02500000	         -0.16163524	          0.00000000	          0.00000000	          0.00000000	          0.00000000	         -5.04032527	          0.00000000	
          1.01600000	          0.00000000	          0.00000000	          0.00000000	          0.00000000	          0.00000000	          0.00000000	        -13.09639649	        587.16516322	         22.03182542	         -0.03998363	         -0.02500000	         -0.16163390	          0.00000000	          0.00000000	          0.00000000	          0.00000000	         -4.88343771	          0.00000000	
          1.02000000	          0.00000000	          0.00000000	          0.00000000	          0.00000000	          0.00000000	          0.00000000	         -9.95961622	        586.90346787	         23.14373523	         -0.03931292	         -0.02500000	         -0.16163173	          0.00000000	          0.00000000	          0.00000000	          0.00000000	         -4.72538351	          0.00000000	
          1.02400000	          0.00000000	          0.00000000	          0.00000000	          0.00000000	          0.00000000	          0.00000000	         -7.04700696	        586.71232430	         24.28246725	         -0.03865889	         -0.02500000	         -0.16163315	          0.00000000	          0.00000000	          0.00000000	          0.00000000	         -4.57951524	          0.00000000	
          1.02800000	          0.00000000	          0.00000000	          0.00000000	          0.00000000	          0.00000000	          0.00000000	         -4.34197906	        586.56856304	         25.26354541	         -0.03802510	         -0.02500000	         -0.16164075	          0.00000000	          0.00000000	          0.00000000	          0.00000000	         -4.45919025	          0.00000000	
          1.03200000	          0.00000000	          0.00000000	          0.00000000	          0.00000000	          0.00000000	          0.00000000	         -1.82616338	        586.51526219	         25.93096232	         -0.03742634	         -0.02500000	         -0.16164665	          0.00000000	          0.00000000	          0.00000000	          0.00000000	         -4.37547732	          0.00000000	
          1.03600000	          0.00000000	          0.00000000	          0.00000000	          0.00000000	          0.00000000	          0.00000000	          0.53045142	        586.66909018	         26.19204512	         -0.03688817	         -0.02500000	         -0.16163760	          0.00000000	          0.00000000	          0.00000000	          0.00000000	         -4.33514163	          0.00000000	
          1.04000000	          0.00000000	          0.00000000	          0.00000000	          0.00000000	          0.00000000	          0.00000000	          2.77170634	        587.19184807	         26.03131982	         -0.03640109	         -0.02500000	         -0.16160345	          0.00000000	          0.00000000	          0.00000000	          0.00000000	         -4.33952278	          0.00000000	
          1.04400000	          0.00000000	          0.00000000	          0.00000000	          0.00000000	          0.00000000	          0.00000000	          4.93935154	        588.23078533	         25.50996236	         -0.03592218	         -0.02500000	         -0.16153067	          0.00000000	          0.00000000	          0.00000000	          0.00000000	         -4.38464789	          0.00000000	
          1.04800000	          0.00000000	          0.00000000	          0.00000000	          0.00000000	          0.00000000	          0.00000000	          7.06136548	        589.86590332	         24.74525129	         -0.03540523	         -0.02500000	         -0.16140086	          0.00000000	          0.00000000	          0.00000000	          0.00000000	         -4.46241626	          0.00000000	
